<svg width="18" height="18" viewBox="0 0 18 18" fill="none" xmlns="http://www.w3.org/2000/svg">
<path d="M16.819 14.1335H1.18033C0.723578 14.1335 0.348633 14.5084 0.348633 14.9652C0.348633 15.4219 0.723578 15.7968 1.18033 15.7968H16.819C17.2757 15.7968 17.6507 15.4219 17.6507 14.9652C17.6507 14.5084 17.2757 14.1335 16.819 14.1335ZM16.0009 9.74318C15.8577 9.86589 15.6123 9.92725 15.2851 9.92725H14.8283C14.5557 9.92725 14.3375 9.87953 14.1875 9.77727C14.0444 9.68865 13.9694 9.57275 13.9353 9.42277L13.8944 9.23189H12.4491L12.4764 9.49776C12.5173 9.85907 12.64 10.1795 12.8445 10.4454C13.0491 10.7112 13.3217 10.9157 13.6626 11.0589C13.9966 11.1952 14.3852 11.2702 14.8215 11.2702H15.2783C16.0486 11.2702 16.6417 11.093 17.0371 10.7317C17.4393 10.3704 17.6438 9.87271 17.6438 9.24553C17.6438 8.65243 17.4666 8.18886 17.1257 7.86845C16.7917 7.55486 16.2872 7.35035 15.5851 7.24127L14.7738 7.11175C14.4329 7.05721 14.2693 6.96859 14.1943 6.90723C14.1603 6.87996 14.0648 6.80497 14.0648 6.54592C14.0648 6.3414 14.1194 6.19824 14.2352 6.1028C14.358 6.00054 14.5897 5.94601 14.9033 5.94601H15.3192C15.5714 5.94601 15.7691 5.99373 15.9055 6.07553C16.0282 6.15734 16.1032 6.25278 16.1304 6.38231L16.1713 6.56637H17.6234L17.5825 6.29368C17.5007 5.77558 17.2553 5.35291 16.8599 5.04614C16.4713 4.74618 15.9532 4.58939 15.326 4.58939H14.9102C14.1671 4.58939 13.5944 4.75982 13.2127 5.08704C12.8173 5.4279 12.6128 5.91192 12.6128 6.51865C12.6128 7.09811 12.7832 7.54805 13.124 7.86164C13.4445 8.16159 13.9285 8.36611 14.5625 8.47518L15.3737 8.60471C15.6669 8.64561 15.8782 8.73424 16.0145 8.85013C16.1372 8.95239 16.1918 9.08873 16.1918 9.27961C16.1918 9.47049 16.1304 9.61366 15.9941 9.72955L16.0009 9.74318ZM9.74954 3.83268C9.9336 3.99629 10.179 4.0781 10.479 4.0781C10.7789 4.0781 11.0244 3.99629 11.2084 3.83268C11.3993 3.66225 11.4947 3.43046 11.4947 3.15096C11.4947 2.86464 11.3993 2.63285 11.2084 2.45561C11.0244 2.28518 10.7789 2.20337 10.479 2.20337C10.179 2.20337 9.9336 2.29199 9.74954 2.45561C9.55866 2.63285 9.46322 2.86464 9.46322 3.15096C9.46322 3.43046 9.55866 3.66225 9.74954 3.83268ZM10.5267 12.4632C11.0107 11.9997 11.2561 11.3793 11.2561 10.609V4.69164H7.28171V6.0619C7.28171 6.0619 9.40868 6.0619 9.79726 6.0619C9.79726 6.49138 9.79726 10.609 9.79726 10.609C9.79726 10.9907 9.695 11.2771 9.49048 11.4747C9.28597 11.6793 8.99283 11.7747 8.59743 11.7747H6.94767V13.1586H8.59743C9.39504 13.1586 10.0427 12.9268 10.5199 12.4701L10.5267 12.4632ZM0.35545 11.2702C0.35545 11.4884 0.423622 11.7065 0.566783 11.8974C0.91446 12.3542 1.56209 12.4496 2.02566 12.1019L6.51819 8.71379C6.77724 8.51609 6.93404 8.20931 6.93404 7.88209C6.93404 7.55486 6.78406 7.24809 6.51819 7.05039L2.02566 3.66225C1.56891 3.31457 0.91446 3.41001 0.566783 3.86676C0.423622 4.05765 0.35545 4.2758 0.35545 4.49395C0.35545 4.80754 0.498611 5.12113 0.771299 5.32564C0.771299 5.32564 2.9119 6.94132 4.16626 7.88891C2.9119 8.8365 0.771299 10.4522 0.771299 10.4522C0.498611 10.6567 0.35545 10.9703 0.35545 11.2839V11.2702Z" fill="white"/>
</svg>
