<svg width="26" height="26" viewBox="0 0 26 26" fill="none" xmlns="http://www.w3.org/2000/svg">
<path d="M19.6226 25.7006C19.3217 25.8461 18.9829 25.8938 18.6536 25.837C18.3243 25.7803 18.021 25.622 17.7862 25.3843L7.59149 16.0372L3.15071 19.4255C2.95056 19.5777 2.70335 19.6549 2.45213 19.6436C2.20092 19.6324 1.96161 19.5333 1.7759 19.3638L0.351345 18.0606C0.240586 17.9587 0.152175 17.8349 0.0916996 17.697C0.0312244 17.5592 0 17.4103 0 17.2598C0 17.1093 0.0312244 16.9604 0.0916996 16.8225C0.152175 16.6847 0.240586 16.5609 0.351345 16.459L4.20122 12.9274L0.351345 9.39589C0.240586 9.29397 0.152175 9.17017 0.0916996 9.03233C0.0312244 8.89449 0 8.7456 0 8.59508C0 8.44456 0.0312244 8.29567 0.0916996 8.15783C0.152175 8.01999 0.240586 7.8962 0.351345 7.79427L1.7759 6.49108C1.96185 6.32182 2.20128 6.22315 2.45249 6.21225C2.70371 6.20134 2.95079 6.27889 3.15071 6.43139L7.59149 9.81769L17.7862 0.47255C18.0221 0.236458 18.3254 0.0794159 18.6544 0.0231067C18.9833 -0.0332024 19.3216 0.013999 19.6226 0.158194L24.9487 2.73273C25.5078 3.00332 25.864 3.57234 25.864 4.19708V13.9222H19.4017V7.02628L11.6662 12.9274L19.4017 18.8286V13.9222H25.864V21.6598C25.864 22.2845 25.5078 22.8535 24.9487 23.1241L19.6226 25.7006Z" fill="#B497CF"/>
</svg>
