<svg width="1074" height="212" viewBox="0 0 1074 212" fill="none" xmlns="http://www.w3.org/2000/svg" role="img" aria-label="ArkDev wordmark">
  <rect x="0" y="0" width="1074" height="212" rx="36" fill="#120F17"/>
  <path d="M73 156L105 58H140L172 156H145L138 133H107L100 156H73ZM114 112H131L122 80L114 112Z" fill="#FFFFFF"/>
  <path d="M205 156V58H242C257 58 269 61 277 68C285 74 289 83 289 94C289 102 287 109 282 114C278 119 272 123 264 125L292 156H261L236 128H231V156H205ZM231 79V108H242C248 108 253 106 257 102C261 99 263 94 263 89C263 83 261 78 257 75C253 72 248 70 242 70H231Z" fill="#FFFFFF"/>
  <path d="M317 156V30H343V103L381 58H412L369 106L414 156H382L343 116V156H317Z" fill="#FFFFFF"/>
  <path d="M439 156V58H477C490 58 502 61 512 66C521 71 528 79 533 88C538 97 541 106 541 117C541 128 538 138 533 147C528 156 521 163 512 168C502 173 490 176 477 176H439ZM465 134H477C487 134 496 131 502 124C508 117 511 109 511 99C511 89 508 81 502 74C496 67 487 64 477 64H465V134Z" fill="#FFFFFF"/>
  <path d="M572 156V58H664V80H598V96H654V117H598V134H666V156H572Z" fill="#FFFFFF"/>
  <path d="M699 156L667 58H694L715 126L736 58H763L731 156H699Z" fill="#FFFFFF"/>
</svg>
