<svg width="1074" height="213" viewBox="0 0 1074 213" fill="none" xmlns="http://www.w3.org/2000/svg" role="img" aria-label="ArkDev wordmark">
  <rect x="0" y="0" width="1074" height="213" rx="36" fill="#FFFFFF"/>
  <path d="M73 156.3L105 58.3H140L172 156.3H145L138 133.3H107L100 156.3H73ZM114 112.3H131L122 80.3L114 112.3Z" fill="#120F17"/>
  <path d="M205 156.3V58.3H242C257 58.3 269 61.3 277 68.3C285 74.3 289 83.3 289 94.3C289 102.3 287 109.3 282 114.3C278 119.3 272 123.3 264 125.3L292 156.3H261L236 128.3H231V156.3H205ZM231 79.3V108.3H242C248 108.3 253 106.3 257 102.3C261 99.3 263 94.3 263 89.3C263 83.3 261 78.3 257 75.3C253 72.3 248 70.3 242 70.3H231Z" fill="#120F17"/>
  <path d="M317 156.3V30.3H343V103.3L381 58.3H412L369 106.3L414 156.3H382L343 116.3V156.3H317Z" fill="#120F17"/>
  <path d="M439 156.3V58.3H477C490 58.3 502 61.3 512 66.3C521 71.3 528 79.3 533 88.3C538 97.3 541 106.3 541 117.3C541 128.3 538 138.3 533 147.3C528 156.3 521 163.3 512 168.3C502 173.3 490 176.3 477 176.3H439ZM465 134.3H477C487 134.3 496 131.3 502 124.3C508 117.3 511 109.3 511 99.3C511 89.3 508 81.3 502 74.3C496 67.3 487 64.3 477 64.3H465V134.3Z" fill="#120F17"/>
  <path d="M572 156.3V58.3H664V80.3H598V96.3H654V117.3H598V134.3H666V156.3H572Z" fill="#120F17"/>
  <path d="M699 156.3L667 58.3H694L715 126.3L736 58.3H763L731 156.3H699Z" fill="#120F17"/>
</svg>
