<svg width="1074" height="212" viewBox="0 0 1074 212" fill="none" xmlns="http://www.w3.org/2000/svg">
<path d="M63.4717 2.81622C72.603 -1.83853 82.7586 1.03226 91.2549 5.81915L92.0723 6.2879L99.7715 10.7908L90.7656 26.1893L83.0664 21.6863L82.418 21.3143C75.8213 17.6058 72.6468 18.1617 71.5723 18.7098L71.5654 18.7127C70.6535 19.1771 68.8002 20.81 67.708 26.3016C66.6406 31.6688 66.6489 39.2654 68.0879 48.8172C68.8311 53.7504 69.9368 59.0692 71.3926 64.6902C77.1846 63.8325 83.2174 63.1381 89.4404 62.6219C99.8561 45.7883 110.994 31.4666 121.728 20.8943C129.391 13.3461 137.216 7.3422 144.77 3.85626C152.09 0.477832 160.606 -1.14463 168.377 2.62188L168.747 2.80548L168.765 2.81427C174.428 5.70979 178.015 10.7257 180.128 16.2215C182.215 21.6499 183.069 28.0118 183.102 34.7352L183.146 43.6541L165.307 43.741L165.264 34.8221L165.25 33.8182C165.146 28.8815 164.461 25.1819 163.478 22.6229C162.458 19.9714 161.34 19.055 160.652 18.701C159.732 18.2379 157.315 17.7122 152.244 20.0525C147.271 22.3474 141.129 26.8231 134.245 33.6033C126.874 40.8635 119.074 50.3499 111.397 61.5701C112.961 61.5481 114.533 61.535 116.111 61.535C146.356 61.535 174.11 65.6089 194.612 72.4422C204.816 75.8433 213.718 80.0895 220.252 85.2381C226.685 90.3075 232.063 97.301 232.063 106.132C232.063 113.742 228.031 120.018 222.88 124.779C217.73 129.539 210.733 133.515 202.762 136.805L194.518 140.209L187.711 123.721L195.955 120.317C202.849 117.471 207.745 114.477 210.771 111.68C213.796 108.883 214.225 107.012 214.225 106.132C214.224 105.109 213.61 102.716 209.211 99.2498C204.911 95.8617 198.137 92.4199 188.972 89.365C170.734 83.2863 144.972 79.3738 116.111 79.3738C110.604 79.3738 105.21 79.5171 99.959 79.7899C97.3328 84.3422 94.7576 89.0819 92.2578 93.9861C90.1819 98.0589 88.2288 102.108 86.4004 106.112C87.8718 109.335 89.4227 112.588 91.0547 115.858L92.2695 118.265L92.2705 118.268L93.5049 120.667C106.318 145.309 120.98 165.594 134.247 178.662C141.129 185.441 147.271 189.914 152.242 192.206C157.32 194.548 159.735 194.015 160.652 193.55L160.813 193.462C161.658 192.961 163.081 191.565 164.133 187.594C165.25 183.373 165.62 177.309 164.875 169.477C163.391 153.885 157.687 133.277 147.94 110.906L144.378 102.729L160.732 95.6033L164.295 103.781C174.527 127.267 180.918 149.757 182.634 167.788C183.488 176.768 183.234 185.146 181.377 192.16C179.524 199.158 175.743 205.879 168.756 209.442L168.751 209.444C160.883 213.45 152.211 211.835 144.772 208.405C137.218 204.921 129.392 198.919 121.729 191.371C106.699 176.567 90.8783 154.408 77.3623 128.284C72.7498 141.178 69.632 153.146 68.083 163.438C66.6453 172.991 66.6378 180.59 67.7061 185.959C68.7308 191.108 70.4244 192.866 71.3838 193.449L71.5654 193.551L71.5742 193.555L71.7148 193.621C73.2731 194.293 77.8866 194.496 86.9775 188.051L94.2529 182.892L104.571 197.444L97.2949 202.603L96.3438 203.267C86.437 210.069 74.2497 214.943 63.4717 209.447V209.448C55.6014 205.441 51.8088 197.474 50.21 189.44C48.5864 181.281 48.8416 171.421 50.4424 160.784C52.8481 144.799 58.4732 125.899 66.9033 106.112C63.8574 98.962 61.1786 91.9274 58.8848 85.1053C53.219 86.3601 47.9816 87.7883 43.251 89.365C34.0855 92.42 27.3113 95.8617 23.0117 99.2498C18.6129 102.716 17.9984 105.109 17.998 106.132C17.998 107.672 19.6193 111.78 28.9795 116.879L29.9102 117.376L37.8135 121.51L29.5459 137.316L21.6426 133.182L20.6162 132.636C10.0349 126.894 0.160156 118.231 0.160156 106.132C0.160488 97.301 5.53771 90.3075 11.9707 85.2381C18.5044 80.0894 27.4063 75.8433 37.6104 72.4422C42.6048 70.7775 48.03 69.2779 53.8164 67.9598C52.3622 62.2021 51.233 56.6841 50.4482 51.4754C48.8459 40.8402 48.5894 30.9808 50.2119 22.8221C51.8097 14.7884 55.6014 6.82346 63.4717 2.81622ZM77.4385 72.9012C72.1605 72.9013 67.8818 77.1799 67.8818 82.4578C67.8819 87.7357 72.1606 92.0144 77.4385 92.0145C82.7165 92.0145 86.9951 87.7358 86.9951 82.4578C86.9951 77.1798 82.7165 72.9012 77.4385 72.9012Z" fill="white"/>
<path d="M312.951 161.04V42.3375H356.34C366.47 42.3375 374.77 43.9202 381.238 47.0856C387.707 50.251 392.467 54.4903 395.518 59.8037C398.692 65.0039 400.278 70.939 400.278 77.609C400.278 83.9397 398.692 89.8183 395.518 95.2447C392.467 100.558 387.646 104.854 381.055 108.132C374.465 111.298 366.043 112.88 355.791 112.88H331.259V161.04H312.951ZM380.323 161.04L352.678 108.302H372.817L401.56 161.04H380.323ZM331.259 99.9928H355.058C364.09 99.9928 370.742 97.9579 375.014 93.8881C379.286 89.7053 381.421 84.3919 381.421 77.9481C381.421 71.3912 379.347 66.191 375.197 62.3473C371.047 58.5036 364.334 56.5817 355.058 56.5817H331.259V99.9928Z" fill="white"/>
<path d="M450.106 163.074C441.319 163.074 433.508 161.209 426.673 157.478C419.838 153.748 414.468 148.548 410.562 141.878C406.778 135.208 404.887 127.464 404.887 118.646C404.887 109.602 406.778 101.745 410.562 95.0751C414.468 88.2922 419.838 83.0353 426.673 79.3047C433.508 75.461 441.441 73.5392 450.473 73.5392C459.504 73.5392 467.255 75.4045 473.723 79.1351C480.192 82.8658 485.196 87.84 488.736 94.0577C492.275 100.162 494.045 106.945 494.045 114.407C494.045 115.537 493.984 116.781 493.862 118.137C493.862 119.381 493.801 120.794 493.679 122.377H418.251V110.337H475.737C475.371 103.215 472.808 97.6753 468.048 93.7185C463.288 89.6487 457.368 87.6139 450.29 87.6139C445.285 87.6139 440.709 88.6878 436.559 90.8358C432.409 92.8707 429.053 95.923 426.49 99.9928C424.049 103.95 422.828 108.98 422.828 115.085V119.833C422.828 126.164 424.049 131.534 426.49 135.943C429.053 140.238 432.409 143.517 436.559 145.778C440.709 147.926 445.224 149 450.106 149C455.965 149 460.786 147.813 464.569 145.439C468.353 143.065 471.16 139.843 472.991 135.773H491.299C489.712 140.973 487.027 145.665 483.243 149.848C479.46 153.917 474.761 157.139 469.146 159.513C463.654 161.887 457.307 163.074 450.106 163.074Z" fill="white"/>
<path d="M535.805 163.074C528.238 163.074 521.952 161.887 516.948 159.513C511.944 157.139 508.221 153.974 505.78 150.017C503.339 145.947 502.119 141.595 502.119 136.96C502.119 131.308 503.705 126.503 506.879 122.546C510.052 118.476 514.568 115.368 520.426 113.22C526.285 111.072 533.303 109.998 541.48 109.998H565.463C565.463 105.023 564.67 100.897 563.083 97.6187C561.496 94.3403 559.116 91.9097 555.943 90.327C552.892 88.6313 548.986 87.7834 544.226 87.7834C538.734 87.7834 534.035 89.027 530.129 91.5141C526.224 93.8881 523.783 97.4492 522.806 102.197H504.499C505.231 96.2056 507.428 91.1184 511.089 86.9356C514.873 82.6397 519.694 79.3612 525.552 77.1002C531.411 74.7262 537.635 73.5392 544.226 73.5392C552.892 73.5392 560.154 74.9523 566.012 77.7785C571.871 80.6048 576.265 84.618 579.194 89.8183C582.245 94.9056 583.771 101.01 583.771 108.132V161.04H567.843L566.378 146.626C565.036 148.887 563.449 151.035 561.618 153.07C559.788 155.104 557.591 156.857 555.028 158.326C552.587 159.796 549.718 160.927 546.423 161.718C543.25 162.622 539.71 163.074 535.805 163.074ZM539.283 149.339C543.189 149.339 546.728 148.604 549.902 147.134C553.075 145.665 555.76 143.686 557.957 141.199C560.276 138.599 561.985 135.716 563.083 132.551C564.304 129.273 564.975 125.938 565.097 122.546V122.037H543.311C538.063 122.037 533.791 122.659 530.495 123.903C527.322 125.033 525.003 126.616 523.539 128.651C522.074 130.686 521.342 133.06 521.342 135.773C521.342 138.599 522.013 141.03 523.356 143.065C524.82 144.987 526.895 146.513 529.58 147.643C532.265 148.774 535.5 149.339 539.283 149.339Z" fill="white"/>
<path d="M640.642 163.074C631.732 163.074 623.799 161.209 616.842 157.478C609.885 153.635 604.392 148.378 600.365 141.708C596.459 135.038 594.506 127.294 594.506 118.476C594.506 109.545 596.459 101.745 600.365 95.0751C604.392 88.2922 609.885 83.0353 616.842 79.3047C623.799 75.461 631.732 73.5392 640.642 73.5392C651.87 73.5392 661.268 76.2524 668.835 81.6788C676.402 87.1051 681.223 94.4534 683.298 103.723H664.258C663.038 98.7492 660.231 94.9055 655.837 92.1924C651.565 89.4792 646.439 88.1226 640.458 88.1226C635.576 88.1226 631.061 89.3096 626.911 91.6836C622.761 93.9446 619.405 97.3361 616.842 101.858C614.401 106.267 613.18 111.75 613.18 118.307C613.18 123.168 613.912 127.52 615.377 131.364C616.842 135.095 618.794 138.26 621.235 140.86C623.799 143.46 626.728 145.439 630.023 146.795C633.318 148.039 636.797 148.661 640.458 148.661C644.486 148.661 648.087 148.095 651.26 146.965C654.555 145.721 657.301 143.913 659.498 141.539C661.817 139.164 663.404 136.338 664.258 133.06H683.298C681.223 142.104 676.402 149.395 668.835 154.935C661.268 160.361 651.87 163.074 640.642 163.074Z" fill="white"/>
<path d="M731.679 161.04C725.821 161.04 720.755 160.192 716.484 158.496C712.212 156.8 708.917 153.974 706.598 150.017C704.279 146.06 703.119 140.691 703.119 133.908V89.9879H687.192V75.5741H703.119L705.316 54.2077H721.427V75.5741H747.607V89.9879H721.427V134.077C721.427 138.938 722.525 142.273 724.722 144.082C726.919 145.778 730.703 146.626 736.073 146.626H746.691V161.04H731.679Z" fill="white"/>
<path d="M797.245 161.04V42.3375H844.661C853.571 42.3375 861.016 43.6941 866.997 46.4073C872.977 49.0074 877.432 52.625 880.361 57.26C883.412 61.782 884.938 66.9258 884.938 72.6913C884.938 78.6829 883.535 83.7136 880.727 87.7834C877.92 91.8532 874.198 95.0186 869.56 97.2796C865.044 99.4275 860.162 100.671 854.914 101.01L857.477 99.3145C863.091 99.4275 868.217 100.841 872.855 103.554C877.493 106.154 881.155 109.659 883.84 114.067C886.525 118.476 887.867 123.338 887.867 128.651C887.867 134.756 886.281 140.295 883.107 145.269C879.934 150.13 875.235 153.974 869.011 156.8C862.786 159.626 855.158 161.04 846.126 161.04H797.245ZM815.552 146.965H843.746C851.801 146.965 858.026 145.269 862.42 141.878C866.936 138.373 869.194 133.455 869.194 127.125C869.194 120.907 866.875 115.933 862.237 112.202C857.721 108.472 851.435 106.606 843.38 106.606H815.552V146.965ZM815.552 93.549H842.647C850.337 93.549 856.195 91.9097 860.223 88.6313C864.251 85.2398 866.264 80.6048 866.264 74.7262C866.264 69.0737 864.251 64.6083 860.223 61.3298C856.195 57.9383 850.154 56.2426 842.098 56.2426H815.552V93.549Z" fill="white"/>
<path d="M900.913 161.04V75.5741H919.221V161.04H900.913ZM910.25 59.4645C906.71 59.4645 903.781 58.4471 901.462 56.4122C899.265 54.3773 898.167 51.7771 898.167 48.6118C898.167 45.5594 899.265 43.0723 901.462 41.1505C903.781 39.1156 906.71 38.0981 910.25 38.0981C913.667 38.0981 916.535 39.1156 918.854 41.1505C921.173 43.0723 922.333 45.5594 922.333 48.6118C922.333 51.7771 921.173 54.3773 918.854 56.4122C916.535 58.4471 913.667 59.4645 910.25 59.4645Z" fill="white"/>
<path d="M974.326 161.04C968.468 161.04 963.403 160.192 959.131 158.496C954.859 156.8 951.564 153.974 949.245 150.017C946.926 146.06 945.767 140.691 945.767 133.908V89.9879H929.839V75.5741H945.767L947.964 54.2077H964.074V75.5741H990.254V89.9879H964.074V134.077C964.074 138.938 965.173 142.273 967.37 144.082C969.567 145.778 973.35 146.626 978.72 146.626H989.339V161.04H974.326Z" fill="white"/>
<path d="M1036.99 163.074C1029.18 163.074 1022.34 161.887 1016.48 159.513C1010.63 157.139 1005.99 153.804 1002.57 149.508C999.153 145.213 997.078 140.182 996.346 134.416H1015.02C1015.63 137.13 1016.79 139.617 1018.5 141.878C1020.33 144.139 1022.77 145.947 1025.82 147.304C1028.99 148.661 1032.72 149.339 1036.99 149.339C1041.02 149.339 1044.31 148.83 1046.87 147.813C1049.56 146.682 1051.51 145.213 1052.73 143.404C1053.95 141.482 1054.56 139.447 1054.56 137.299C1054.56 134.134 1053.71 131.76 1052 130.177C1050.41 128.481 1047.97 127.181 1044.68 126.277C1041.5 125.259 1037.66 124.355 1033.14 123.564C1028.87 122.885 1024.72 121.981 1020.69 120.85C1016.79 119.607 1013.25 118.081 1010.08 116.272C1007.03 114.463 1004.58 112.202 1002.75 109.489C1000.92 106.663 1000.01 103.215 1000.01 99.1449C1000.01 94.2838 1001.41 89.9314 1004.22 86.0877C1007.03 82.131 1010.99 79.0786 1016.12 76.9307C1021.37 74.6697 1027.53 73.5392 1034.61 73.5392C1044.86 73.5392 1053.1 75.8002 1059.32 80.3222C1065.55 84.8441 1069.21 91.2314 1070.31 99.4841H1052.55C1052.06 95.6404 1050.23 92.7011 1047.06 90.6662C1043.88 88.5183 1039.67 87.4443 1034.43 87.4443C1029.18 87.4443 1025.15 88.4052 1022.34 90.327C1019.54 92.2489 1018.13 94.7925 1018.13 97.9579C1018.13 99.9928 1018.93 101.802 1020.51 103.384C1022.1 104.967 1024.42 106.324 1027.47 107.454C1030.64 108.472 1034.49 109.432 1039 110.337C1045.47 111.467 1051.27 112.88 1056.39 114.576C1061.52 116.272 1065.61 118.759 1068.66 122.037C1071.71 125.316 1073.24 130.007 1073.24 136.112C1073.36 141.425 1071.9 146.117 1068.84 150.187C1065.91 154.257 1061.7 157.422 1056.21 159.683C1050.84 161.944 1044.43 163.074 1036.99 163.074Z" fill="white"/>
</svg>
