<svg width="66" height="61" viewBox="0 0 66 61" fill="none" xmlns="http://www.w3.org/2000/svg">
<path d="M18.0848 0.699827C20.5925 -0.578453 23.3722 0.14341 25.7342 1.42248L26.201 1.68518L28.3865 2.96252L25.8309 7.33264L23.6453 6.0553L23.283 5.85119C21.5316 4.90708 20.6787 5.06004 20.3836 5.21057L20.3817 5.21155C20.1228 5.34344 19.5968 5.80659 19.2869 7.36487C18.9841 8.88805 18.986 11.0439 19.3943 13.7545C19.6054 15.1552 19.9204 16.6653 20.3338 18.2614C21.9774 18.018 23.689 17.819 25.4549 17.6725C28.4107 12.8954 31.571 8.831 34.617 5.83069C36.7918 3.68857 39.0125 1.98408 41.1561 0.994749C43.2006 0.0512081 45.5741 -0.409969 47.7508 0.594359L47.9608 0.696898L47.9656 0.698851L48.2606 0.859984C49.699 1.69918 50.629 3.04227 51.1912 4.50451C51.7834 6.04494 52.0256 7.8506 52.035 9.75842L52.0477 12.2897L46.9852 12.3141L46.9725 9.78284L46.9608 9.22229C46.9131 7.95844 46.7262 6.99874 46.4656 6.32092C46.1778 5.57238 45.8622 5.31125 45.6668 5.20959L45.5486 5.16076C45.2242 5.05239 44.5418 5.00832 43.2781 5.59143C41.8669 6.24271 40.1233 7.51293 38.1697 9.43713C36.078 11.4975 33.8657 14.1905 31.6873 17.3746C32.1306 17.3684 32.576 17.3639 33.0233 17.3639C41.6065 17.3639 49.4833 18.5194 55.3016 20.4586C58.1974 21.4238 60.7237 22.6293 62.5779 24.0905C64.4036 25.5291 65.9295 27.514 65.9295 30.0201C65.9294 32.1798 64.7858 33.9609 63.324 35.3121C61.8627 36.6629 59.8763 37.7914 57.6141 38.7252L55.2742 39.691L53.3426 35.0114L55.6824 34.0455C57.6388 33.2379 59.0286 32.3883 59.8875 31.5944C60.7456 30.8011 60.8669 30.2702 60.867 30.0201C60.867 29.7301 60.6928 29.051 59.4442 28.067C58.224 27.1056 56.3018 26.1292 53.701 25.2623C48.5252 23.5372 41.2138 22.4264 33.0233 22.4264C31.46 22.4264 29.9287 22.4671 28.4383 22.5446C27.6932 23.8362 26.963 25.1814 26.2537 26.5729C25.6648 27.7282 25.1132 28.8782 24.5945 30.0143C24.9097 30.7046 25.2349 31.401 25.576 32.0992L26.2576 33.4635V33.4645L26.9617 34.818C30.5125 41.5074 34.5262 47.0142 38.1697 50.6031C40.123 52.527 41.8664 53.7973 43.2772 54.4479C44.5406 55.0304 45.2232 54.9853 45.5477 54.8766L45.6649 54.8278C45.8961 54.7093 46.3335 54.3382 46.6512 53.1383C46.9683 51.9407 47.0735 50.2199 46.8621 47.9977C46.4674 43.8493 45.0199 38.4491 42.5613 32.5592L42.0565 31.3746L41.0457 29.0543L45.6863 27.0319L46.6971 29.3531L47.2293 30.5992C49.823 36.8109 51.4457 42.7201 51.9022 47.5172C52.1446 50.0655 52.0727 52.4438 51.5457 54.4342C51.0527 56.2961 50.0787 58.0893 48.325 59.1393L47.9637 59.3385L47.9617 59.3395C45.7289 60.4761 43.2681 60.018 41.157 59.0446C39.0131 58.0559 36.7917 56.3526 34.617 54.2106C30.3517 50.0093 25.8639 43.7193 22.0281 36.3053C20.7188 39.9651 19.833 43.3625 19.3934 46.2838C18.9854 48.9947 18.9828 51.1509 19.2859 52.6744C19.5575 54.0388 19.9949 54.5641 20.2733 54.7623L20.3817 54.8287L20.3836 54.8307L20.4695 54.8668C20.9521 55.0413 22.2592 55.0383 24.7557 53.2682L26.8201 51.8043L29.7488 55.9342L27.6834 57.3981C24.8248 59.4249 21.2397 60.9513 18.0818 59.3395V59.3385C15.8504 58.2008 14.7747 55.9417 14.3211 53.6627C13.8603 51.3471 13.9323 48.5485 14.3865 45.5299C15.0692 40.9935 16.666 35.6298 19.0584 30.0143C18.1942 27.9857 17.4368 25.9889 16.7859 24.0533C15.1771 24.4096 13.6897 24.8146 12.3465 25.2623C9.74542 26.1293 7.82252 27.1055 6.60236 28.067C5.35373 29.051 5.17951 29.7301 5.1795 30.0201C5.17963 30.4717 5.67034 31.6989 8.56036 33.2106L10.8026 34.3844L8.45685 38.8697L6.21368 37.6969C3.10335 36.07 0.1171 33.5647 0.117004 30.0201C0.117008 27.514 1.64294 25.5291 3.46857 24.0905C5.32277 22.6293 7.8491 21.4238 10.7449 20.4586C12.1623 19.9862 13.7024 19.5612 15.3445 19.1871C14.9318 17.5531 14.6112 15.9866 14.3885 14.5084C13.9338 11.4906 13.8608 8.69278 14.3211 6.37756C14.7745 4.0976 15.8512 1.83709 18.0848 0.699827ZM22.0486 20.5895C20.5508 20.5895 19.3358 21.8035 19.3358 23.3014C19.3359 24.7992 20.5508 26.0133 22.0486 26.0133C23.5463 26.0131 24.7604 24.799 24.7606 23.3014C24.7606 21.8037 23.5463 20.5897 22.0486 20.5895Z" fill="black"/>
</svg>
