<svg width="1074" height="213" viewBox="0 0 1074 213" fill="none" xmlns="http://www.w3.org/2000/svg">
<path d="M63.4717 3.1063C72.603 -1.54852 82.7585 1.3223 91.2549 6.10923L92.0723 6.57798L99.7715 11.0809L90.7656 26.4793L83.0664 21.9764L82.418 21.6043C75.8211 17.8957 72.6468 18.4517 71.5723 18.9999L71.5654 19.0028C70.6535 19.4671 68.8002 21.0999 67.708 26.5917C66.6406 31.9589 66.6488 39.5554 68.0879 49.1073C68.8311 54.0405 69.9368 59.3592 71.3926 64.9803C77.1846 64.1226 83.2174 63.4282 89.4404 62.912C99.8562 46.0783 110.994 31.7567 121.728 21.1844C129.391 13.6361 137.216 7.63229 144.77 4.14634C152.09 0.767879 160.606 -0.85461 168.377 2.91196L168.747 3.09556L168.765 3.10435C174.428 5.9999 178.015 11.0157 180.128 16.5116C182.215 21.94 183.069 28.3018 183.102 35.0252L183.146 43.9442L165.307 44.0311L165.264 35.1122L165.25 34.1083C165.146 29.1715 164.461 25.472 163.478 22.9129C162.458 20.2614 161.34 19.3451 160.652 18.9911C159.732 18.5279 157.316 18.0022 152.244 20.3426C147.271 22.6375 141.129 27.1131 134.245 33.8934C126.874 41.1537 119.074 50.6399 111.397 61.8602C112.961 61.8382 114.533 61.8251 116.111 61.825C146.356 61.825 174.11 65.8989 194.612 72.7323C204.816 76.1333 213.718 80.3796 220.252 85.5282C226.685 90.5976 232.063 97.591 232.063 106.422C232.063 114.032 228.031 120.308 222.88 125.069C217.73 129.829 210.733 133.805 202.762 137.096L194.518 140.499L187.711 124.011L195.955 120.607C202.849 117.761 207.745 114.767 210.771 111.97C213.796 109.173 214.225 107.303 214.225 106.422C214.224 105.399 213.61 103.007 209.211 99.5399C204.911 96.1518 198.137 92.71 188.972 89.6551C170.734 83.5764 144.972 79.6639 116.111 79.6639C110.604 79.6639 105.21 79.8071 99.959 80.0799C97.3328 84.6323 94.7576 89.3719 92.2578 94.2762C90.1819 98.349 88.2288 102.398 86.4004 106.402C87.8719 109.626 89.4226 112.878 91.0547 116.148L92.2695 118.556L92.2705 118.558L93.5049 120.957C106.318 145.599 120.98 165.884 134.247 178.952C141.129 185.731 147.271 190.204 152.242 192.496C157.32 194.838 159.735 194.305 160.652 193.84L160.813 193.752C161.658 193.251 163.081 191.855 164.133 187.884C165.25 183.663 165.62 177.599 164.875 169.767C163.391 154.176 157.687 133.567 147.94 111.196L144.378 103.019L160.732 95.8934L164.295 104.071C174.528 127.557 180.918 150.047 182.634 168.078C183.488 177.058 183.234 185.436 181.377 192.45C179.524 199.448 175.743 206.169 168.756 209.732L168.751 209.734C160.883 213.74 152.211 212.125 144.772 208.695C137.218 205.211 129.392 199.209 121.729 191.661C106.699 176.857 90.8783 154.698 77.3623 128.574C72.7498 141.468 69.632 153.436 68.083 163.728C66.6453 173.282 66.6377 180.88 67.7061 186.249C68.7309 191.399 70.4244 193.157 71.3838 193.739L71.5654 193.841L71.5742 193.845L71.7148 193.911C73.2731 194.583 77.8866 194.787 86.9775 188.341L94.2529 183.182L104.571 197.734L97.2949 202.893L96.3438 203.557C86.437 210.359 74.2497 215.233 63.4717 209.737V209.738C55.6013 205.731 51.8088 197.765 50.21 189.73C48.5863 181.571 48.8416 171.711 50.4424 161.074C52.848 145.089 58.4731 126.19 66.9033 106.402C63.8574 99.252 61.1787 92.2175 58.8848 85.3954C53.219 86.6501 47.9816 88.0784 43.251 89.6551C34.0854 92.7101 27.3112 96.1518 23.0117 99.5399C18.6126 103.007 17.9983 105.399 17.998 106.422C17.998 107.963 19.6192 112.07 28.9795 117.169L29.9102 117.666L37.8135 121.8L29.5459 137.606L21.6426 133.473L20.6162 132.926C10.0349 127.184 0.160156 118.521 0.160156 106.422C0.160412 97.591 5.53766 90.5976 11.9707 85.5282C18.5044 80.3795 27.4062 76.1334 37.6104 72.7323C42.6048 71.0676 48.03 69.5679 53.8164 68.2499C52.3622 62.4922 51.233 56.9742 50.4482 51.7655C48.8459 41.1302 48.5894 31.2709 50.2119 23.1122C51.8096 15.0784 55.6013 7.11357 63.4717 3.1063ZM77.4385 73.1913C72.1605 73.1914 67.8818 77.4699 67.8818 82.7479C67.882 88.0257 72.1606 92.3045 77.4385 92.3045C82.7164 92.3045 86.995 88.0258 86.9951 82.7479C86.9951 77.4699 82.7165 73.1913 77.4385 73.1913Z" fill="#120F17"/>
<path d="M312.951 161.33V42.6275H356.34C366.47 42.6275 374.77 44.2102 381.238 47.3756C387.707 50.541 392.467 54.7804 395.518 60.0937C398.692 65.294 400.278 71.2291 400.278 77.899C400.278 84.2298 398.692 90.1084 395.518 95.5347C392.467 100.848 387.646 105.144 381.055 108.422C374.465 111.588 366.043 113.17 355.791 113.17H331.259V161.33H312.951ZM380.323 161.33L352.678 108.592H372.817L401.56 161.33H380.323ZM331.259 100.283H355.058C364.09 100.283 370.742 98.2479 375.014 94.1781C379.286 89.9953 381.421 84.682 381.421 78.2382C381.421 71.6813 379.347 66.481 375.197 62.6373C371.047 58.7936 364.334 56.8718 355.058 56.8718H331.259V100.283Z" fill="#120F17"/>
<path d="M450.106 163.364C441.319 163.364 433.508 161.499 426.673 157.769C419.838 154.038 414.468 148.838 410.562 142.168C406.778 135.498 404.887 127.754 404.887 118.936C404.887 109.892 406.778 102.035 410.562 95.3652C414.468 88.5822 419.838 83.3254 426.673 79.5948C433.508 75.7511 441.441 73.8292 450.473 73.8292C459.504 73.8292 467.255 75.6945 473.723 79.4252C480.192 83.1558 485.196 88.13 488.736 94.3477C492.275 100.452 494.045 107.235 494.045 114.697C494.045 115.827 493.984 117.071 493.862 118.427C493.862 119.671 493.801 121.084 493.679 122.667H418.251V110.627H475.737C475.371 103.505 472.808 97.9653 468.048 94.0086C463.288 89.9388 457.368 87.9039 450.29 87.9039C445.285 87.9039 440.709 88.9779 436.559 91.1258C432.409 93.1607 429.053 96.213 426.49 100.283C424.049 104.24 422.828 109.27 422.828 115.375V120.123C422.828 126.454 424.049 131.824 426.49 136.233C429.053 140.528 432.409 143.807 436.559 146.068C440.709 148.216 445.224 149.29 450.106 149.29C455.965 149.29 460.786 148.103 464.569 145.729C468.353 143.355 471.16 140.133 472.991 136.063H491.299C489.712 141.263 487.027 145.955 483.243 150.138C479.46 154.207 474.761 157.429 469.146 159.803C463.654 162.177 457.307 163.364 450.106 163.364Z" fill="#120F17"/>
<path d="M535.805 163.364C528.238 163.364 521.952 162.177 516.948 159.803C511.944 157.429 508.221 154.264 505.78 150.307C503.339 146.237 502.119 141.885 502.119 137.25C502.119 131.598 503.705 126.793 506.879 122.836C510.052 118.766 514.568 115.658 520.426 113.51C526.285 111.362 533.303 110.288 541.48 110.288H565.463C565.463 105.314 564.67 101.187 563.083 97.9088C561.496 94.6303 559.116 92.1998 555.943 90.6171C552.892 88.9213 548.986 88.0735 544.226 88.0735C538.734 88.0735 534.035 89.317 530.129 91.8041C526.224 94.1781 523.783 97.7392 522.806 102.487H504.499C505.231 96.4957 507.428 91.4084 511.089 87.2256C514.873 82.9297 519.694 79.6513 525.552 77.3903C531.411 75.0162 537.635 73.8292 544.226 73.8292C552.892 73.8292 560.154 75.2423 566.012 78.0686C571.871 80.8948 576.265 84.9081 579.194 90.1084C582.245 95.1956 583.771 101.3 583.771 108.422V161.33H567.843L566.378 146.916C565.036 149.177 563.449 151.325 561.618 153.36C559.788 155.394 557.591 157.147 555.028 158.616C552.587 160.086 549.718 161.217 546.423 162.008C543.25 162.912 539.71 163.364 535.805 163.364ZM539.283 149.629C543.189 149.629 546.728 148.894 549.902 147.424C553.075 145.955 555.76 143.976 557.957 141.489C560.276 138.889 561.985 136.006 563.083 132.841C564.304 129.563 564.975 126.228 565.097 122.836V122.327H543.311C538.063 122.327 533.791 122.949 530.495 124.193C527.322 125.323 525.003 126.906 523.539 128.941C522.074 130.976 521.342 133.35 521.342 136.063C521.342 138.889 522.013 141.32 523.356 143.355C524.82 145.277 526.895 146.803 529.58 147.933C532.265 149.064 535.5 149.629 539.283 149.629Z" fill="#120F17"/>
<path d="M640.642 163.364C631.732 163.364 623.799 161.499 616.842 157.769C609.885 153.925 604.392 148.668 600.365 141.998C596.459 135.328 594.506 127.584 594.506 118.766C594.506 109.836 596.459 102.035 600.365 95.3652C604.392 88.5822 609.885 83.3254 616.842 79.5948C623.799 75.7511 631.732 73.8292 640.642 73.8292C651.87 73.8292 661.268 76.5424 668.835 81.9688C676.402 87.3952 681.223 94.7434 683.298 104.013H664.258C663.038 99.0393 660.231 95.1956 655.837 92.4824C651.565 89.7692 646.439 88.4126 640.458 88.4126C635.576 88.4126 631.061 89.5996 626.911 91.9737C622.761 94.2347 619.405 97.6262 616.842 102.148C614.401 106.557 613.18 112.04 613.18 118.597C613.18 123.458 613.912 127.81 615.377 131.654C616.842 135.385 618.794 138.55 621.235 141.15C623.799 143.75 626.728 145.729 630.023 147.085C633.318 148.329 636.797 148.951 640.458 148.951C644.486 148.951 648.087 148.385 651.26 147.255C654.555 146.011 657.301 144.203 659.498 141.829C661.817 139.455 663.404 136.628 664.258 133.35H683.298C681.223 142.394 676.402 149.685 668.835 155.225C661.268 160.651 651.87 163.364 640.642 163.364Z" fill="#120F17"/>
<path d="M731.679 161.33C725.821 161.33 720.755 160.482 716.484 158.786C712.212 157.09 708.917 154.264 706.598 150.307C704.279 146.351 703.119 140.981 703.119 134.198V90.2779H687.192V75.8641H703.119L705.316 54.4977H721.427V75.8641H747.607V90.2779H721.427V134.367C721.427 139.228 722.525 142.563 724.722 144.372C726.919 146.068 730.703 146.916 736.073 146.916H746.691V161.33H731.679Z" fill="#120F17"/>
<path d="M797.245 161.33V42.6275H844.661C853.571 42.6275 861.016 43.9841 866.997 46.6973C872.977 49.2975 877.432 52.915 880.361 57.5501C883.412 62.0721 884.938 67.2158 884.938 72.9814C884.938 78.973 883.535 84.0037 880.727 88.0735C877.92 92.1433 874.198 95.3086 869.56 97.5696C865.044 99.7176 860.162 100.961 854.914 101.3L857.477 99.6045C863.091 99.7176 868.217 101.131 872.855 103.844C877.493 106.444 881.155 109.949 883.84 114.357C886.525 118.766 887.867 123.628 887.867 128.941C887.867 135.046 886.281 140.585 883.107 145.559C879.934 150.42 875.235 154.264 869.011 157.09C862.786 159.916 855.158 161.33 846.126 161.33H797.245ZM815.552 147.255H843.746C851.801 147.255 858.026 145.559 862.42 142.168C866.936 138.663 869.194 133.745 869.194 127.415C869.194 121.197 866.875 116.223 862.237 112.492C857.721 108.762 851.435 106.896 843.38 106.896H815.552V147.255ZM815.552 93.839H842.647C850.337 93.839 856.195 92.1998 860.223 88.9213C864.251 85.5299 866.264 80.8948 866.264 75.0162C866.264 69.3638 864.251 64.8983 860.223 61.6199C856.195 58.2284 850.154 56.5326 842.098 56.5326H815.552V93.839Z" fill="#120F17"/>
<path d="M900.913 161.33V75.8641H919.221V161.33H900.913ZM910.25 59.7545C906.71 59.7545 903.781 58.7371 901.462 56.7022C899.265 54.6673 898.167 52.0672 898.167 48.9018C898.167 45.8494 899.265 43.3624 901.462 41.4405C903.781 39.4056 906.71 38.3882 910.25 38.3882C913.667 38.3882 916.535 39.4056 918.854 41.4405C921.173 43.3624 922.333 45.8494 922.333 48.9018C922.333 52.0672 921.173 54.6673 918.854 56.7022C916.535 58.7371 913.667 59.7545 910.25 59.7545Z" fill="#120F17"/>
<path d="M974.326 161.33C968.468 161.33 963.403 160.482 959.131 158.786C954.859 157.09 951.564 154.264 949.245 150.307C946.926 146.351 945.767 140.981 945.767 134.198V90.2779H929.839V75.8641H945.767L947.964 54.4977H964.074V75.8641H990.254V90.2779H964.074V134.367C964.074 139.228 965.173 142.563 967.37 144.372C969.567 146.068 973.35 146.916 978.72 146.916H989.339V161.33H974.326Z" fill="#120F17"/>
<path d="M1036.99 163.364C1029.18 163.364 1022.34 162.177 1016.48 159.803C1010.63 157.429 1005.99 154.094 1002.57 149.799C999.153 145.503 997.078 140.472 996.346 134.706H1015.02C1015.63 137.42 1016.79 139.907 1018.5 142.168C1020.33 144.429 1022.77 146.237 1025.82 147.594C1028.99 148.951 1032.72 149.629 1036.99 149.629C1041.02 149.629 1044.31 149.12 1046.87 148.103C1049.56 146.972 1051.51 145.503 1052.73 143.694C1053.95 141.772 1054.56 139.737 1054.56 137.589C1054.56 134.424 1053.71 132.05 1052 130.467C1050.41 128.771 1047.97 127.471 1044.68 126.567C1041.5 125.549 1037.66 124.645 1033.14 123.854C1028.87 123.175 1024.72 122.271 1020.69 121.14C1016.79 119.897 1013.25 118.371 1010.08 116.562C1007.03 114.753 1004.58 112.492 1002.75 109.779C1000.92 106.953 1000.01 103.505 1000.01 99.4349C1000.01 94.5738 1001.41 90.2214 1004.22 86.3777C1007.03 82.421 1010.99 79.3687 1016.12 77.2207C1021.37 74.9597 1027.53 73.8292 1034.61 73.8292C1044.86 73.8292 1053.1 76.0902 1059.32 80.6122C1065.55 85.1342 1069.21 91.5215 1070.31 99.7741H1052.55C1052.06 95.9304 1050.23 92.9911 1047.06 90.9562C1043.88 88.8083 1039.67 87.7343 1034.43 87.7343C1029.18 87.7343 1025.15 88.6952 1022.34 90.6171C1019.54 92.5389 1018.13 95.0825 1018.13 98.2479C1018.13 100.283 1018.93 102.092 1020.51 103.674C1022.1 105.257 1024.42 106.614 1027.47 107.744C1030.64 108.762 1034.49 109.722 1039 110.627C1045.47 111.757 1051.27 113.17 1056.39 114.866C1061.52 116.562 1065.61 119.049 1068.66 122.327C1071.71 125.606 1073.24 130.297 1073.24 136.402C1073.36 141.715 1071.9 146.407 1068.84 150.477C1065.91 154.547 1061.7 157.712 1056.21 159.973C1050.84 162.234 1044.43 163.364 1036.99 163.364Z" fill="#120F17"/>
</svg>
