<svg width="6" height="6" viewBox="0 0 6 6" fill="none" xmlns="http://www.w3.org/2000/svg">
<path d="M2.52894 2.0306L3.11194 0.794686C3.12764 0.759297 3.15328 0.729227 3.18574 0.708121C3.2182 0.687015 3.25608 0.675781 3.2948 0.675781C3.33352 0.675781 3.3714 0.687015 3.40386 0.708121C3.43632 0.729227 3.46196 0.759297 3.47766 0.794686L4.06066 2.0306L5.36388 2.22992C5.53104 2.25535 5.59761 2.47074 5.47682 2.59415L4.53371 3.55521L4.75621 4.91303C4.785 5.08767 4.60999 5.22042 4.46041 5.13815L3.2948 4.49683L2.12919 5.13815C1.97961 5.22042 1.8046 5.08767 1.83339 4.91303L2.05589 3.55558L1.11278 2.59415C0.991994 2.47074 1.05856 2.25535 1.22572 2.22992L2.52894 2.0306Z" fill="white" stroke="white" stroke-width="0.56093" stroke-linecap="round" stroke-linejoin="round"/>
</svg>
